#N canvas 0 23 1389 747 10;
#X obj 273 34 readsf~;
#X obj 273 70 dac~;
#X obj 272 127 readsf~;
#X obj 272 153 dac~;
#X floatatom 86 99 5 0 0 0 - - -, f 5;
#X floatatom 139 267 5 0 0 0 - - -, f 5;
#X obj 86 1 vsl 7 75 40 260 0 0 empty empty bpm 0 -9 0 10 -260097 -1
-1 11200 1;
#X obj 86 80 i;
#X obj 139 188 vradio 7 1 0 7 empty empty bars 0 -8 0 10 -260097 -1
-1 1;
#X obj 139 246 expr $f1 + 2;
#X obj 86 138 i;
#X floatatom 119 153 5 0 0 0 ms - -, f 5;
#X obj 86 118 expr 60000 / $f1;
#X obj 43 153 metro;
#X obj 43 137 bng 7 250 50 0 empty empty empty 17 7 0 10 -262144 -1
-1;
#X floatatom 43 222 5 0 0 0 - - -, f 5;
#X obj 43 203 i;
#X obj 78 203 + 1;
#X msg 13 152 0;
#X floatatom 43 263 5 0 0 0 - - -, f 5;
#X obj 43 239 %;
#X obj 43 173 t b b b;
#X obj 225 302 expr if($f1 == 0 \, 0 \, 1);
#X obj 225 282 hradio 7 1 0 2 empty empty empty 0 -8 0 10 -262144 -1
-1 1;
#X obj 310 229 sel 0 1;
#X msg 54 132 0;
#X msg 273 10 open metronome_t1.wav \, 1;
#X msg 272 99 open metronome_t2.wav \, 1;
#X connect 0 0 1 0;
#X connect 0 0 1 1;
#X connect 2 0 3 0;
#X connect 2 0 3 1;
#X connect 4 0 12 0;
#X connect 5 0 20 1;
#X connect 6 0 7 0;
#X connect 7 0 4 0;
#X connect 8 0 9 0;
#X connect 9 0 5 0;
#X connect 10 0 11 0;
#X connect 10 0 13 1;
#X connect 12 0 10 0;
#X connect 13 0 21 0;
#X connect 14 0 13 0;
#X connect 14 0 18 0;
#X connect 15 0 20 0;
#X connect 16 0 17 0;
#X connect 16 0 15 0;
#X connect 17 0 16 1;
#X connect 18 0 16 0;
#X connect 19 0 22 0;
#X connect 20 0 19 0;
#X connect 21 0 16 0;
#X connect 21 1 8 0;
#X connect 21 2 6 0;
#X connect 22 0 23 0;
#X connect 23 0 24 0;
#X connect 24 0 26 0;
#X connect 24 1 27 0;
#X connect 25 0 13 0;
#X connect 26 0 0 0;
#X connect 27 0 2 0;
