#N canvas 1913 0 958 998 10;
#X msg 233 168 open snare_1.wav;
#X msg 170 155 start;
#X msg 171 186 stop;
#X obj 235 230 dac~ 1 2;
#X obj 234 200 readsf~ 2;
#X obj 311 235 bng 7 250 50 0 empty empty empty 17 7 0 10 -262144 -1
-1;
#X text 168 134 * the /sounds dire should be in path;
#X text 168 118 playing sound from file (not from RAM);
#X connect 0 0 4 0;
#X connect 1 0 4 0;
#X connect 2 0 4 0;
#X connect 4 0 3 0;
#X connect 4 1 3 1;
#X connect 4 2 5 0;
