#N canvas -8 -8 1920 1007 10;
#X obj 86 203 metro;
#X msg 43 61 0;
#X msg 82 90 1;
#X msg 109 106 60000;
#X obj 142 135 /;
#X floatatom 176 106 5 0 0 0 bpm - -, f 5;
#X obj 87 60 t b b b;
#X obj 142 159 i;
#X obj 86 40 bng 8 250 50 0 empty empty empty 17 7 0 10 -262144 -1
-1;
#X text 41 47 off;
#X text 94 36 on;
#X floatatom 177 149 5 0 0 0 - - -, f 5;
#X floatatom 177 174 5 0 0 0 - - -, f 5;
#X text 212 149 float;
#X text 214 174 int;
#X text 176 75 bpm to ms unit converter;
#X obj 86 232 t b b;
#X floatatom 130 313 5 0 0 0 - - -, f 5;
#X msg 110 260 1;
#X obj 130 281 +;
#X obj 75 271 bng 7 250 50 0 empty empty empty 17 7 0 10 -262144 -1
-1;
#X connect 0 0 16 0;
#X connect 1 0 0 0;
#X connect 2 0 0 0;
#X connect 3 0 4 0;
#X connect 4 0 7 0;
#X connect 4 0 11 0;
#X connect 5 0 4 1;
#X connect 6 0 2 0;
#X connect 6 1 3 0;
#X connect 6 2 5 0;
#X connect 7 0 0 1;
#X connect 7 0 12 0;
#X connect 8 0 6 0;
#X connect 16 0 20 0;
#X connect 16 1 18 0;
#X connect 17 0 19 1;
#X connect 18 0 19 0;
#X connect 19 0 17 0;
